<svg width="112" height="26" viewBox="0 0 112 26" fill="none" xmlns="http://www.w3.org/2000/svg">
<path d="M100.167 17.7528L109.693 12.2528" stroke="#FF4B32" stroke-width="1.5" stroke-linecap="round" stroke-linejoin="round"/>
<path d="M103.773 10.6666L109.693 12.2527L108.107 18.1722" stroke="#FF4B32" stroke-width="1.5" stroke-linecap="round" stroke-linejoin="round"/>
<path d="M1.50781 19V7.57812H3.375V17.3984H8.21094V19H1.50781ZM13.7578 19.1562C12.4141 19.1562 11.362 18.7656 10.6016 17.9844C9.84635 17.1979 9.46875 16.1172 9.46875 14.7422C9.46875 13.3307 9.82031 12.2214 10.5234 11.4141C11.2266 10.6068 12.1927 10.2031 13.4219 10.2031C14.5625 10.2031 15.4635 10.5495 16.125 11.2422C16.7865 11.9349 17.1172 12.888 17.1172 14.1016V15.0938H11.3594C11.3854 15.9323 11.612 16.5781 12.0391 17.0312C12.4661 17.4792 13.0677 17.7031 13.8438 17.7031C14.3542 17.7031 14.8281 17.6562 15.2656 17.5625C15.7083 17.4635 16.1823 17.3021 16.6875 17.0781V18.5703C16.2396 18.7839 15.7865 18.9349 15.3281 19.0234C14.8698 19.112 14.3464 19.1562 13.7578 19.1562ZM13.4219 11.5938C12.8385 11.5938 12.3698 11.7786 12.0156 12.1484C11.6667 12.5182 11.4583 13.0573 11.3906 13.7656H15.3125C15.3021 13.0521 15.1302 12.513 14.7969 12.1484C14.4635 11.7786 14.0052 11.5938 13.4219 11.5938ZM24.6094 19L24.2422 17.7969H24.1797C23.763 18.3229 23.3438 18.6823 22.9219 18.875C22.5 19.0625 21.9583 19.1562 21.2969 19.1562C20.4479 19.1562 19.7839 18.9271 19.3047 18.4688C18.8307 18.0104 18.5938 17.362 18.5938 16.5234C18.5938 15.6328 18.9245 14.9609 19.5859 14.5078C20.2474 14.0547 21.2552 13.8073 22.6094 13.7656L24.1016 13.7188V13.2578C24.1016 12.7057 23.9714 12.2943 23.7109 12.0234C23.4557 11.7474 23.0573 11.6094 22.5156 11.6094C22.0729 11.6094 21.6484 11.6745 21.2422 11.8047C20.8359 11.9349 20.4453 12.0885 20.0703 12.2656L19.4766 10.9531C19.9453 10.7083 20.4583 10.5234 21.0156 10.3984C21.5729 10.2682 22.099 10.2031 22.5938 10.2031C23.6927 10.2031 24.5208 10.4427 25.0781 10.9219C25.6406 11.401 25.9219 12.1536 25.9219 13.1797V19H24.6094ZM21.875 17.75C22.5417 17.75 23.0755 17.5651 23.4766 17.1953C23.8828 16.8203 24.0859 16.2969 24.0859 15.625V14.875L22.9766 14.9219C22.112 14.9531 21.4818 15.099 21.0859 15.3594C20.6953 15.6146 20.5 16.0078 20.5 16.5391C20.5 16.9245 20.6146 17.224 20.8438 17.4375C21.0729 17.6458 21.4167 17.75 21.875 17.75ZM32.8672 10.2031C33.237 10.2031 33.5417 10.2292 33.7812 10.2812L33.6016 11.9922C33.3411 11.9297 33.0703 11.8984 32.7891 11.8984C32.0547 11.8984 31.4583 12.138 31 12.6172C30.5469 13.0964 30.3203 13.7188 30.3203 14.4844V19H28.4844V10.3594H29.9219L30.1641 11.8828H30.2578C30.5443 11.3672 30.9167 10.9583 31.375 10.6562C31.8385 10.3542 32.3359 10.2031 32.8672 10.2031ZM42.9922 19H41.1484V13.6875C41.1484 13.0208 41.013 12.5234 40.7422 12.1953C40.4766 11.8672 40.0521 11.7031 39.4688 11.7031C38.6927 11.7031 38.125 11.9323 37.7656 12.3906C37.4062 12.849 37.2266 13.6172 37.2266 14.6953V19H35.3906V10.3594H36.8281L37.0859 11.4922H37.1797C37.4401 11.0807 37.8099 10.763 38.2891 10.5391C38.7682 10.3151 39.2995 10.2031 39.8828 10.2031C41.9557 10.2031 42.9922 11.2578 42.9922 13.3672V19ZM54.8359 19L51.5234 9.46094H51.4609C51.5495 10.8776 51.5938 12.2057 51.5938 13.4453V19H49.8984V7.57812H52.5312L55.7031 16.6641H55.75L59.0156 7.57812H61.6562V19H59.8594V13.3516C59.8594 12.7839 59.8724 12.0443 59.8984 11.1328C59.9297 10.2214 59.9557 9.66927 59.9766 9.47656H59.9141L56.4844 19H54.8359ZM72.1328 14.6641C72.1328 16.0755 71.7708 17.1771 71.0469 17.9688C70.3229 18.7604 69.3151 19.1562 68.0234 19.1562C67.2161 19.1562 66.5026 18.974 65.8828 18.6094C65.263 18.2448 64.7865 17.7214 64.4531 17.0391C64.1198 16.3568 63.9531 15.5651 63.9531 14.6641C63.9531 13.263 64.3125 12.1693 65.0312 11.3828C65.75 10.5964 66.763 10.2031 68.0703 10.2031C69.3203 10.2031 70.3099 10.6068 71.0391 11.4141C71.7682 12.2161 72.1328 13.2995 72.1328 14.6641ZM65.8438 14.6641C65.8438 16.6589 66.5807 17.6562 68.0547 17.6562C69.513 17.6562 70.2422 16.6589 70.2422 14.6641C70.2422 12.6901 69.5078 11.7031 68.0391 11.7031C67.2682 11.7031 66.7083 11.9583 66.3594 12.4688C66.0156 12.9792 65.8438 13.7109 65.8438 14.6641ZM78.6328 10.2031C79.0026 10.2031 79.3073 10.2292 79.5469 10.2812L79.3672 11.9922C79.1068 11.9297 78.8359 11.8984 78.5547 11.8984C77.8203 11.8984 77.224 12.138 76.7656 12.6172C76.3125 13.0964 76.0859 13.7188 76.0859 14.4844V19H74.25V10.3594H75.6875L75.9297 11.8828H76.0234C76.3099 11.3672 76.6823 10.9583 77.1406 10.6562C77.6042 10.3542 78.1016 10.2031 78.6328 10.2031ZM84.9297 19.1562C83.5859 19.1562 82.5339 18.7656 81.7734 17.9844C81.0182 17.1979 80.6406 16.1172 80.6406 14.7422C80.6406 13.3307 80.9922 12.2214 81.6953 11.4141C82.3984 10.6068 83.3646 10.2031 84.5938 10.2031C85.7344 10.2031 86.6354 10.5495 87.2969 11.2422C87.9583 11.9349 88.2891 12.888 88.2891 14.1016V15.0938H82.5312C82.5573 15.9323 82.7839 16.5781 83.2109 17.0312C83.638 17.4792 84.2396 17.7031 85.0156 17.7031C85.526 17.7031 86 17.6562 86.4375 17.5625C86.8802 17.4635 87.3542 17.3021 87.8594 17.0781V18.5703C87.4115 18.7839 86.9583 18.9349 86.5 19.0234C86.0417 19.112 85.5182 19.1562 84.9297 19.1562ZM84.5938 11.5938C84.0104 11.5938 83.5417 11.7786 83.1875 12.1484C82.8385 12.5182 82.6302 13.0573 82.5625 13.7656H86.4844C86.474 13.0521 86.3021 12.513 85.9688 12.1484C85.6354 11.7786 85.1771 11.5938 84.5938 11.5938Z" fill="#FF4B32"/>
</svg>
